<svg width="18" height="18" viewBox="0 0 18 18" fill="none" xmlns="http://www.w3.org/2000/svg">
<path fill-rule="evenodd" clip-rule="evenodd" d="M0.5625 0.5625V16.7311V17.4375H1.26238H11.2941V16.0247H1.96227V0.5625H0.5625ZM16.7376 0.562501H6.66705V1.97529H16.0377V17.4375H17.4375V1.2689V0.562501H16.7376ZM2.58439 0.5625V13.7093V14.1017H2.97321H6.20046H6.35934L6.47275 13.9894L11.9551 8.56119V17.4375H12.7327V7.62645V6.69171L12.0716 7.34631L6.04158 13.3169H3.36204V0.5625H2.58439ZM3.90639 0.5625V12.375V12.7674H4.29522H5.61722H5.77696L5.89056 12.6541L12.5036 6.05668H13.2771V17.4375H14.0547V5.66424V5.2718H13.6659H12.3439H12.1842L12.0706 5.38513L5.45749 11.9826H4.68404V0.5625H3.90639ZM5.2284 0.5625V10.4913V11.4345L5.8913 10.7696L11.9599 4.68314H14.638V17.4375H15.4156V4.2907V3.89825H15.0268H11.7995H11.6392L11.5255 4.01232L6.00605 9.54805V0.5625H5.2284Z" fill="white"/>
</svg>
