<svg width="25" height="25" viewBox="0 0 25 25" fill="none" xmlns="http://www.w3.org/2000/svg">
<rect width="25" height="25" rx="5" fill="#282A33"/>
<path fill-rule="evenodd" clip-rule="evenodd" d="M20.1184 8.53223C20.2386 8.15142 20.1184 7.87444 19.586 7.87444H17.8173C17.3708 7.87444 17.1648 8.11677 17.0446 8.37647C17.0446 8.37647 16.1344 10.5922 14.8637 12.029C14.4515 12.4444 14.2627 12.5829 14.0394 12.5829C13.9192 12.5829 13.7647 12.4444 13.7647 12.0636V8.51491C13.7647 8.06485 13.6273 7.85712 13.2495 7.85712H10.4676C10.1929 7.85712 10.0212 8.06485 10.0212 8.27258C10.0212 8.70537 10.6565 8.80921 10.7252 10.0209V12.6522C10.7252 13.2234 10.6222 13.3273 10.3989 13.3273C9.79791 13.3273 8.33829 11.0942 7.46251 8.54955C7.29076 8.04752 7.11906 7.85712 6.6726 7.85712H4.88666C4.37151 7.85712 4.28564 8.0995 4.28564 8.35915C4.28564 8.82653 4.88666 11.1808 7.08469 14.2967C8.54436 16.4259 10.6222 17.5684 12.494 17.5684C13.6273 17.5684 13.7647 17.3087 13.7647 16.876V15.2661C13.7647 14.7467 13.8677 14.6602 14.2283 14.6602C14.4859 14.6602 14.9495 14.7987 15.997 15.82C17.1991 17.0317 17.4051 17.5857 18.0749 17.5857H19.8436C20.3588 17.5857 20.5992 17.326 20.4618 16.824C20.3073 16.322 19.7234 15.595 18.9678 14.7294C18.5557 14.2448 17.9375 13.7081 17.7486 13.4484C17.491 13.1023 17.5597 12.9638 17.7486 12.6522C17.7315 12.6522 19.8951 9.57089 20.1184 8.53223Z" fill="white"/>
</svg>
